# xmcd CD database file
#
# Track frame offsets:
#	150
#	141767
#	215115
#	247142
#
# Disc length: 3826 seconds
#
# Revision: 0
# Processed by: cddbd v1.5PL3 Copyright (c) Steve Scherf et al.
# Submitted via: CDex 1.50
#
DISCID=3f0ef004
DTITLE=RIchie Beirach, Terumasa HINO, Masahiko Togashi - RIchie Beirach, Terumasa HINO, Masahiko Togashi
DYEAR=1900
DGENRE=Jazz
TTITLE0=Essence
TTITLE1=Tsunami
TTITLE2=ZAL
TTITLE3=What is this thing called love
EXTD=
EXTT0=
EXTT1=
EXTT2=
EXTT3=
PLAYORDER=
